<svg width="836" height="581" viewBox="0 0 836 581" fill="none" xmlns="http://www.w3.org/2000/svg">
<g clip-path="url(#clip0_422_3367)">
<path d="M312.84 97.6553C337.437 116.883 364.857 100.785 391.137 99.5552C403.324 98.9848 415.487 101.73 427.499 103.778C438.9 105.721 450.259 108.548 460.682 113.369C472.042 118.44 481.706 126.312 488.629 136.137C490.004 138.145 492.079 136.662 492.063 134.262C491.898 108.772 480.101 110.836 467.785 112.716C456.075 114.503 446.121 103.648 434.566 101.311C422.475 99.0382 410.255 97.4113 397.965 96.4383C384.642 95.2025 371.285 94.364 357.896 93.923C342.882 93.4283 327.864 93.4339 312.84 93.94C310.288 94.0248 310.276 97.7405 312.84 97.6553Z" fill="#3F3D56"/>
<path d="M229.877 302.711C230.229 303.063 230.42 303.529 230.411 304.01C230.402 304.491 230.193 304.951 229.829 305.291C229.464 305.631 228.973 305.826 228.458 305.835C227.943 305.843 227.444 305.665 227.067 305.336C210.815 292.321 194.563 279.313 178.31 266.314C178.292 266.294 178.269 266.277 178.244 266.265C177.115 265.473 176.048 264.608 175.049 263.676C159.924 262.029 143.301 256.58 127.552 254.215C113.646 256.147 99.7802 258.45 85.8345 260.159C73.6841 261.737 61.4347 262.556 49.1676 262.611C39.1856 262.562 42.0736 238.656 33.0195 234.247C23.6076 229.665 4.73251 244.494 2.31985 235.23C1.12781 230.488 0.351954 225.663 0 220.803V190.598C1.28586 177.446 23.7003 181.503 34.3452 172.327C50.319 158.556 55.7427 126.25 76.1839 125.867C100.544 125.387 124.911 126.383 149.133 128.851C168.885 130.882 189.658 132.851 207.925 140.715C215.759 144.096 223.143 163.65 228.538 170.003C234.696 177.425 238.181 186.476 238.494 195.861C239.462 215.787 229.758 234.017 224.442 252.828C219.829 269.113 217.231 288.853 229.877 302.711Z" fill="#F2F2F2"/>
<path d="M180.157 268.223C196.634 281.416 213.114 294.608 229.595 307.796C229.972 308.125 230.471 308.304 230.987 308.295C231.502 308.287 231.994 308.092 232.359 307.751C232.723 307.411 232.932 306.951 232.941 306.469C232.95 305.988 232.759 305.522 232.407 305.169C219.761 291.322 222.36 271.581 226.97 255.287C232.292 236.474 241.995 218.251 241.024 198.33C240.716 188.942 237.229 179.888 231.066 172.468C225.494 166.225 218.437 161.285 210.458 158.043C192.191 150.179 171.422 148.202 151.662 146.176C127.443 143.706 103.078 142.708 78.721 143.187C58.2738 143.58 34.355 143.929 18.3822 157.704C3.83559 170.249 1.84875 189.977 1.98903 207.395C2.07029 217.486 2.27753 227.851 4.84543 237.7C7.25934 246.957 12.4941 255.975 21.909 260.555C30.9648 264.961 41.7235 265.03 51.6961 265.075C63.9631 265.027 76.2126 264.206 88.3612 262.617C112.676 259.646 136.759 254.846 161.27 253.396C167.268 253.041 173.285 252.883 179.294 253.001C181.854 253.051 181.854 249.335 179.294 249.286C155.461 248.82 131.873 252.644 108.424 256.126C85.7429 259.494 62.557 262.669 39.5349 260.965C34.488 260.744 29.5256 259.671 24.8878 257.799C20.4085 255.811 16.6185 252.685 13.9509 248.779C7.95742 240.06 6.82184 229.137 6.30412 218.964C5.7135 210.16 5.80098 201.328 6.56586 192.536C7.44917 184.011 9.57635 175.364 14.4355 168.004C25.5195 151.216 47.9296 144.23 67.0558 147.246C88.5937 150.642 105.069 166.726 137.934 148.652C148.251 142.978 161.77 150.873 173.608 152.542C182.455 153.681 191.181 155.526 199.691 158.057C207.879 160.391 215.508 164.179 222.159 169.214C229.121 174.714 233.968 182.19 235.961 190.502C240.526 209.644 231.478 228.751 225.499 246.665C220.169 262.633 215.622 281.387 222.799 297.499C224.472 301.243 226.766 304.718 229.595 307.796L232.407 305.169C215.93 291.976 199.451 278.784 182.969 265.596C181.036 264.047 178.21 266.663 180.157 268.223Z" fill="#E6E6E6"/>
<path d="M109.948 181.783H50.0027C49.4527 181.783 48.9251 181.578 48.5361 181.215C48.1472 180.852 47.9287 180.359 47.9287 179.845C47.9287 179.331 48.1472 178.838 48.5361 178.475C48.9251 178.112 49.4527 177.907 50.0027 177.907H109.948C110.499 177.907 111.026 178.112 111.415 178.475C111.804 178.838 112.022 179.331 112.022 179.845C112.022 180.359 111.804 180.852 111.415 181.215C111.026 181.578 110.499 181.783 109.948 181.783Z" fill="white"/>
<path d="M109.948 223.1H50.0027C49.7304 223.1 49.4607 223.05 49.209 222.953C48.9574 222.856 48.7287 222.713 48.5361 222.533C48.3436 222.353 48.1908 222.139 48.0866 221.904C47.9823 221.669 47.9287 221.417 47.9287 221.163C47.9287 220.908 47.9823 220.656 48.0866 220.421C48.1908 220.186 48.3436 219.973 48.5361 219.793C48.7287 219.613 48.9574 219.47 49.209 219.373C49.4607 219.275 49.7304 219.225 50.0027 219.225H109.948C110.499 219.225 111.026 219.429 111.415 219.793C111.804 220.156 112.022 220.649 112.022 221.163C112.022 221.677 111.804 222.17 111.415 222.533C111.026 222.896 110.499 223.1 109.948 223.1Z" fill="white"/>
<path d="M158.634 202.455H50.0027C49.4527 202.455 48.9251 202.251 48.5361 201.887C48.1472 201.524 47.9287 201.031 47.9287 200.517C47.9287 200.004 48.1472 199.511 48.5361 199.147C48.9251 198.784 49.4527 198.58 50.0027 198.58H158.634C159.184 198.58 159.712 198.784 160.1 199.147C160.489 199.511 160.708 200.004 160.708 200.517C160.708 201.031 160.489 201.524 160.1 201.887C159.712 202.251 159.184 202.455 158.634 202.455Z" fill="white"/>
<path d="M296.159 396.83C296.51 397.182 296.701 397.648 296.692 398.129C296.683 398.61 296.474 399.07 296.11 399.41C295.746 399.75 295.254 399.945 294.739 399.954C294.224 399.962 293.725 399.784 293.348 399.456C277.096 386.44 260.844 373.432 244.592 360.433C244.573 360.413 244.551 360.396 244.526 360.384C243.397 359.592 242.329 358.727 241.331 357.796C226.205 356.149 209.582 350.699 193.834 348.334C179.928 350.266 163.41 364.954 149.465 366.663C137.314 368.24 125.065 369.06 112.798 369.115C102.816 369.065 105.704 338.967 96.6497 334.558C87.2377 329.976 71.0139 338.613 68.6013 329.349C67.3684 324.631 61.2815 319.789 60.8838 314.922V284.717C62.1696 271.565 71.4911 258.537 82.136 249.361C98.1098 235.59 122.024 235.23 142.465 234.847C166.825 234.366 191.193 235.363 215.415 237.831C235.167 239.862 255.939 241.831 274.206 249.695C282.186 252.94 289.244 257.88 294.82 264.122C300.977 271.544 304.462 280.595 304.775 289.98C305.743 309.906 296.039 328.136 290.724 346.947C286.111 363.232 283.512 382.972 296.159 396.83Z" fill="#F2F2F2"/>
<path d="M246.439 362.342C262.916 375.535 279.395 388.727 295.876 401.915C296.253 402.244 296.752 402.423 297.268 402.414C297.784 402.406 298.275 402.211 298.64 401.87C299.005 401.53 299.213 401.07 299.223 400.588C299.232 400.107 299.04 399.641 298.688 399.288C286.043 385.441 288.641 365.7 293.251 349.406C298.573 330.593 308.276 312.37 307.305 292.449C306.997 283.061 303.511 274.007 297.347 266.587C291.775 260.344 284.718 255.404 276.739 252.162C258.472 244.298 237.704 242.321 217.943 240.295C193.724 237.825 169.359 236.826 145.002 237.306C124.555 237.699 100.636 238.048 84.6634 251.823C70.1168 264.368 68.13 284.096 68.2703 301.514C68.3515 311.605 68.5588 321.97 71.1267 331.818C73.5406 341.076 78.7753 350.093 88.1903 354.674C97.2461 359.08 108.005 359.149 117.977 359.194C130.244 359.146 142.494 358.324 154.642 356.736C178.957 353.765 203.04 348.965 227.551 347.515C233.55 347.16 239.566 347.002 245.575 347.12C248.136 347.17 248.135 343.454 245.575 343.404C221.742 342.939 198.154 346.763 174.705 350.245C152.024 353.613 128.838 356.788 105.816 355.084C100.769 354.863 95.8068 353.79 91.169 351.918C86.6898 349.93 82.8997 346.804 80.2322 342.898C74.2387 334.179 73.1031 323.255 72.5854 313.083C71.9947 304.279 72.0822 295.447 72.8471 286.654C73.7304 278.13 75.8576 269.483 80.7167 262.123C91.8007 245.335 117.07 231.495 133.337 241.365C151.922 252.642 175.692 253.13 204.215 242.77C215.373 238.718 228.051 244.992 239.889 246.661C248.736 247.8 257.462 249.645 265.972 252.175C274.16 254.51 281.789 258.298 288.441 263.333C295.403 268.833 300.249 276.309 302.242 284.621C306.807 303.763 297.759 322.87 291.78 340.784C286.45 356.752 281.904 375.506 289.08 391.618C290.753 395.362 293.047 398.837 295.876 401.915L298.688 399.288C282.211 386.095 265.732 372.903 249.251 359.714C247.317 358.166 244.491 360.782 246.439 362.342Z" fill="#E6E6E6"/>
<path d="M176.23 275.901H116.284C115.734 275.901 115.206 275.697 114.817 275.334C114.428 274.971 114.21 274.478 114.21 273.964C114.21 273.45 114.428 272.957 114.817 272.594C115.206 272.23 115.734 272.026 116.284 272.026H176.23C176.78 272.026 177.307 272.23 177.696 272.594C178.085 272.957 178.304 273.45 178.304 273.964C178.304 274.478 178.085 274.971 177.696 275.334C177.307 275.697 176.78 275.901 176.23 275.901Z" fill="white"/>
<path d="M176.23 317.219H116.284C115.734 317.219 115.206 317.015 114.817 316.652C114.428 316.288 114.21 315.796 114.21 315.282C114.21 314.768 114.428 314.275 114.817 313.912C115.206 313.548 115.734 313.344 116.284 313.344H176.23C176.78 313.344 177.307 313.548 177.696 313.912C178.085 314.275 178.304 314.768 178.304 315.282C178.304 315.796 178.085 316.288 177.696 316.652C177.307 317.015 176.78 317.219 176.23 317.219Z" fill="white"/>
<path d="M224.915 296.574H116.284C115.734 296.574 115.206 296.37 114.817 296.007C114.428 295.643 114.21 295.15 114.21 294.637C114.21 294.123 114.428 293.63 114.817 293.266C115.206 292.903 115.734 292.699 116.284 292.699H224.915C225.465 292.699 225.993 292.903 226.382 293.266C226.771 293.63 226.989 294.123 226.989 294.637C226.989 295.15 226.771 295.643 226.382 296.007C225.993 296.37 225.465 296.574 224.915 296.574Z" fill="white"/>
<path d="M622.915 465.533H455.391C453.854 465.533 452.379 464.963 451.292 463.947C450.205 462.932 449.595 461.555 449.595 460.119C449.595 458.682 450.205 457.305 451.292 456.29C452.379 455.274 453.854 454.704 455.391 454.704H622.915C624.453 454.704 625.927 455.274 627.014 456.29C628.101 457.305 628.711 458.682 628.711 460.119C628.711 461.555 628.101 462.932 627.014 463.947C625.927 464.963 624.453 465.533 622.915 465.533Z" fill="#F2F2F2"/>
<path d="M622.915 581H455.391C453.854 581 452.379 580.43 451.292 579.414C450.205 578.399 449.595 577.022 449.595 575.586C449.595 574.15 450.205 572.772 451.292 571.757C452.379 570.741 453.854 570.171 455.391 570.171H622.915C624.453 570.171 625.927 570.741 627.014 571.757C628.101 572.772 628.711 574.15 628.711 575.586C628.711 577.022 628.101 578.399 627.014 579.414C625.927 580.43 624.453 581 622.915 581Z" fill="#F2F2F2"/>
<path d="M758.972 523.305H455.391C454.629 523.306 453.874 523.166 453.17 522.895C452.466 522.623 451.826 522.224 451.287 521.722C450.748 521.219 450.32 520.621 450.028 519.964C449.736 519.306 449.586 518.602 449.586 517.89C449.586 517.178 449.736 516.473 450.028 515.816C450.32 515.158 450.748 514.561 451.287 514.058C451.826 513.555 452.466 513.157 453.17 512.885C453.874 512.613 454.629 512.474 455.391 512.475H758.972C760.508 512.477 761.98 513.049 763.065 514.064C764.15 515.079 764.759 516.455 764.759 517.89C764.759 519.324 764.15 520.7 763.065 521.716C761.98 522.731 760.508 523.302 758.972 523.305Z" fill="#F2F2F2"/>
<path d="M360.835 517.224L370.353 525.592L410.201 494.518L396.155 482.167L360.835 517.224Z" fill="#FFB6B6"/>
<path d="M378.163 553.409L372.875 530.371L379.285 524.009L375.834 521.312L365.12 512.971L362.499 510.921L337.854 531.628L344.998 537.902L352.614 532.727L349.524 541.888L368.444 558.527C369.352 559.324 370.508 559.83 371.744 559.97C372.981 560.11 374.233 559.878 375.318 559.306C376.403 558.735 377.265 557.855 377.776 556.794C378.288 555.733 378.424 554.547 378.163 553.409Z" fill="#2F2E41"/>
<path d="M314.44 549.583L327.361 551.418L341.254 504.694L322.185 501.987L314.44 549.583Z" fill="#FFB6B6"/>
<path d="M350.707 570.161L332.344 554.01L333.749 545.372L329.269 544.985L315.38 543.808L311.976 543.512L304.29 573.634L313.984 575.004L317.104 566.704L320.133 575.882L345.822 579.532C347.054 579.706 348.313 579.509 349.416 578.968C350.518 578.427 351.407 577.571 351.953 576.525C352.498 575.478 352.671 574.297 352.447 573.152C352.223 572.008 351.614 570.96 350.707 570.161Z" fill="#2F2E41"/>
<path d="M438.744 217.667L475.799 279.667C475.799 279.667 474.253 407.179 479.178 411.909C484.102 416.638 488.561 420.88 484.102 420.842C479.643 420.804 481.082 450.968 481.082 450.968L398.893 510.412L379.008 495.551L428.893 438.028L401.344 320.284C401.344 320.284 381.552 431.634 377.985 434.966C374.418 438.298 372.266 438.274 376.017 441.619C379.768 444.963 376.017 452.526 376.017 452.526L336.914 528.342L315.704 525.843C315.704 525.843 319.381 463.949 332.186 437.378V311.81C331.221 322.576 376.333 213.61 348.747 221.788C357.475 219.201 438.744 217.667 438.744 217.667Z" fill="#2F2E41"/>
<path d="M421.746 69.9153H391.113L386.776 86.1221L363.222 92.2066C363.222 92.2066 351.572 164.381 361.356 170.203C371.141 176.024 364.318 194.235 364.318 194.235C364.318 194.235 339.952 218.819 342.876 222.461C345.8 226.103 351.732 220.561 344.867 226.974C338.003 233.387 334.104 232.477 336.053 234.298C337.259 235.453 338.193 236.83 338.797 238.342L330.39 258.791C330.39 258.791 375.04 267.077 397.457 255.24C419.874 243.403 469.581 266.166 469.581 266.166C469.581 266.166 467.025 254.215 464.892 252.451C462.759 250.687 457.785 255.147 461.247 249.275C464.708 243.403 467.632 246.135 464.708 243.403C461.784 240.672 449.113 204.251 449.113 204.251C449.113 204.251 439.367 184.219 450.088 176.024C460.809 167.83 464.892 140.951 464.892 140.951L452.039 92.2066L430.595 87.7032L421.746 69.9153Z" fill="#E6E6E6"/>
<path d="M300.485 256.006L307.842 228.456L291.582 222.334L284.913 251.72C283.391 252.772 282.214 254.199 281.513 255.842C280.812 257.484 280.616 259.277 280.946 261.018C281.276 262.759 282.119 264.38 283.381 265.698C284.643 267.016 286.273 267.979 288.089 268.478C289.905 268.978 291.834 268.995 293.659 268.527C295.484 268.058 297.133 267.124 298.421 265.828C299.709 264.532 300.584 262.926 300.949 261.191C301.313 259.456 301.153 257.66 300.485 256.006Z" fill="#FFB6B6"/>
<path d="M371.952 90.3649L371.467 90.2869C366.953 89.5624 362.318 89.8766 357.963 91.2025C353.608 92.5283 349.665 94.8258 346.474 97.896C338.145 105.901 300.966 165.432 302.305 175.382C303.553 184.66 304.033 182.596 299.491 187.334C294.95 192.071 293.221 184.857 293.151 194.72C293.081 204.583 297.115 204.497 292.828 206.909C288.54 209.321 285.704 207.641 286.488 214.295C287.271 220.95 286.072 222.715 285.818 225.041C285.564 227.367 279.408 242.291 279.408 242.291C279.408 242.291 297.527 246.836 304.834 253.642C304.834 253.642 305.665 236.801 309.354 235.272C313.042 233.743 316.477 234.541 315.44 230.212C314.403 225.883 309.078 223.966 315.602 224.117C322.125 224.269 332.202 191.858 332.202 191.858L375.773 117.593L371.952 90.3649Z" fill="#E6E6E6"/>
<path d="M470.281 269.653L471.59 241.285L489.041 239.723L486.515 269.669C487.655 271.081 488.35 272.762 488.523 274.523C488.697 276.283 488.341 278.054 487.496 279.637C486.651 281.219 485.35 282.549 483.74 283.479C482.129 284.408 480.274 284.9 478.381 284.898C476.488 284.896 474.633 284.401 473.025 283.468C471.417 282.536 470.119 281.203 469.278 279.619C468.436 278.035 468.084 276.263 468.262 274.503C468.439 272.742 469.138 271.063 470.281 269.653Z" fill="#FFB6B6"/>
<path d="M452.039 91.8777L452.528 91.9315C457.077 92.4328 461.426 93.9624 465.2 96.3877C468.973 98.813 472.057 102.061 474.184 105.851C479.741 115.734 497.318 182.672 493.014 191.858C489.001 200.425 489.167 198.318 492.084 204.064C495 209.811 498.848 203.35 495.921 212.827C492.993 222.304 489.151 221.153 492.53 224.601C495.91 228.05 499.139 227.19 496.367 233.364C493.596 239.538 494.209 241.549 493.747 243.846C493.284 246.144 494.656 262.086 494.656 262.086C494.656 262.086 475.902 261.644 466.828 266.234C466.828 266.234 471.144 249.864 468.072 247.421C464.999 244.978 461.463 244.832 463.772 240.956C466.08 237.08 471.769 236.652 465.467 235.069C459.165 233.485 459.342 199.736 459.342 199.736L440.108 116.975L452.039 91.8777Z" fill="#E6E6E6"/>
<path d="M336.825 50.7934C336.582 60.5617 340.49 70.0203 346.104 78.3281C347.979 73.5041 350.605 68.9647 353.897 64.8561C352.321 73.9589 354 83.2934 358.675 91.4149C358.84 91.525 359.01 91.6272 359.186 91.7212C363.762 94.2926 369.563 95.3342 374.513 93.477C364.286 83.1777 362.984 66.1134 371.559 54.5613C373.986 51.2833 377.126 48.3841 378.63 44.6537C381.004 38.7017 378.722 32.1483 377.282 25.9426C375.936 20.167 375.7 13.294 379.848 9.06126C379.405 8.46973 378.801 7.99888 378.099 7.69694C377.398 7.39501 376.622 7.27286 375.853 7.34299C373.296 7.68046 371.434 9.75699 370.249 11.8957C369.063 14.0344 368.281 16.4047 366.629 18.2519C363.569 21.7095 358.359 22.5269 353.968 24.3492C343.333 28.7741 337.08 39.924 336.825 50.7934Z" fill="#2F2E41"/>
<path d="M426.34 45.2084C425.732 43.2214 429.92 55.3674 427.899 55.5867C418.694 56.5733 406.057 61.7094 399.645 64.1055C399.356 64.0741 399.068 64.0428 398.787 64.0037C398.1 63.9332 397.429 63.8314 396.766 63.714C381.837 61.0751 376.096 39.6507 376.096 39.455C376.096 38.4918 378.57 12.0386 382.468 11.6471C383.492 11.5433 384.521 11.4911 385.551 11.4905H395.223C397.225 11.0876 399.254 10.8129 401.295 10.6683H401.312C420.785 9.28231 436.139 20.3702 434.704 33.8621C434.695 33.8777 434.678 33.8934 434.67 33.909C434.254 34.4885 433.889 35.0366 433.566 35.5613C433.252 36.0546 432.988 36.5244 432.759 36.9707C430.984 40.4161 435.547 44.7515 432.521 45.5608C428.498 46.637 443.103 82.0114 427.178 82.0114C434.924 84.069 428.016 50.6897 426.34 45.2084Z" fill="#2F2E41"/>
<path d="M408.956 65.9647C421.604 65.9647 431.857 56.3861 431.857 44.5702C431.857 32.7544 421.604 23.1758 408.956 23.1758C396.308 23.1758 386.055 32.7544 386.055 44.5702C386.055 56.3861 396.308 65.9647 408.956 65.9647Z" fill="#FFB6B6"/>
<path d="M434.704 35.0289C434.322 35.2168 433.948 35.3891 433.566 35.5614C433.167 35.7415 432.768 35.9216 432.369 36.086C424.7 39.3357 418.458 39.6958 414.671 35.0289C414.569 32.5733 413.979 30.1568 412.93 27.9032C413.115 30.4216 412.405 32.9267 410.909 35.0289H403.283C395.427 39.8994 391.394 40.4085 396.846 56.3982C398.366 60.8537 404.41 86.7803 402.032 90.6251C401.344 90.5546 394.026 62.1569 393.364 62.0395C378.434 59.4007 368.949 36.4227 370.163 35.1229C370.157 31.4265 371.067 27.7789 372.821 24.4657C375.04 20.268 378.5 16.7519 382.791 14.3331C385.349 13.1745 388.015 12.2387 390.757 11.5376C390.825 11.522 390.884 11.5063 390.952 11.4906C391.793 11.2792 392.65 11.0834 393.508 10.919C395.28 10.5695 397.072 10.3159 398.875 10.1595C399.003 10.1516 399.13 10.1438 399.249 10.1438C399.969 10.1454 400.675 10.3265 401.295 10.6684C401.304 10.6684 401.304 10.6762 401.312 10.6762C401.756 10.9181 402.142 11.2403 402.45 11.6237C402.993 12.269 403.286 13.0664 403.283 13.8868H411.775C412.089 13.8868 412.403 13.8946 412.718 13.9102C418.385 14.0912 423.777 16.2415 427.837 19.9404C431.897 23.6393 434.334 28.6205 434.67 33.9092C434.696 34.285 434.704 34.653 434.704 35.0289Z" fill="#2F2E41"/>
<path d="M384.631 28.1896C392.964 28.1896 399.719 21.8791 399.719 14.0948C399.719 6.31045 392.964 0 384.631 0C376.299 0 369.544 6.31045 369.544 14.0948C369.544 21.8791 376.299 28.1896 384.631 28.1896Z" fill="#2F2E41"/>
<path d="M527.991 438.76C528.607 438.786 529.217 438.635 529.738 438.327C530.259 438.019 530.666 437.568 530.904 437.037C531.142 436.505 531.2 435.918 531.068 435.355C530.937 434.792 530.624 434.28 530.171 433.889L529.965 433.123C529.992 433.062 530.019 433.001 530.047 432.939C530.667 431.57 531.708 430.402 533.037 429.583C534.366 428.763 535.924 428.329 537.516 428.335C539.108 428.34 540.663 428.785 541.986 429.614C543.308 430.442 544.339 431.617 544.949 432.991C547.386 438.475 550.489 443.968 551.253 449.767C551.59 452.33 551.448 454.928 550.834 457.445C556.558 445.78 559.531 433.1 559.55 420.267C559.551 417.047 559.359 413.829 558.976 410.629C558.659 408.005 558.22 405.4 557.658 402.814C554.589 388.781 548.002 375.629 538.436 364.436C533.806 362.076 530.061 358.447 527.707 354.038C526.855 352.453 526.252 350.761 525.918 349.015C526.44 349.079 527.887 341.648 527.493 341.192C528.221 340.16 529.524 339.647 530.319 338.641C534.272 333.633 539.719 334.507 542.563 341.312C548.637 344.176 548.696 348.926 544.969 353.494C542.597 356.4 542.272 360.333 540.191 363.444C540.405 363.7 540.628 363.948 540.842 364.204C544.755 368.905 548.165 373.952 551.024 379.274C550.329 373.312 551.158 367.281 553.445 361.677C555.762 356.454 560.106 352.055 563.931 347.54C564.943 346.328 566.317 345.422 567.879 344.939C569.442 344.455 571.123 344.415 572.709 344.824C574.296 345.232 575.718 346.071 576.794 347.235C577.87 348.398 578.554 349.833 578.757 351.359C578.765 351.425 578.773 351.492 578.78 351.558C578.212 351.858 577.656 352.176 577.112 352.512C576.428 352.939 575.898 353.548 575.592 354.261C575.286 354.974 575.217 355.756 575.395 356.506C575.572 357.256 575.989 357.938 576.588 358.463C577.188 358.989 577.944 359.332 578.757 359.449L578.84 359.461C578.638 361.374 578.28 363.27 577.77 365.132C582.677 382.861 572.083 389.318 556.955 389.608C556.622 389.768 556.296 389.928 555.962 390.08C558.835 397.685 560.636 405.606 561.322 413.644C561.71 418.387 561.687 423.151 561.254 427.89L561.279 427.722C562.375 422.452 565.384 417.697 569.799 414.26C576.355 409.229 585.617 407.376 592.69 403.332C593.441 402.881 594.316 402.641 595.209 402.639C596.102 402.637 596.977 402.873 597.731 403.321C598.485 403.768 599.087 404.408 599.464 405.164C599.842 405.92 599.98 406.762 599.863 407.589L599.834 407.765C598.78 408.167 597.753 408.629 596.76 409.149C596.192 409.449 595.636 409.766 595.092 410.103C594.408 410.529 593.879 411.139 593.572 411.852C593.266 412.564 593.197 413.347 593.375 414.097C593.553 414.847 593.969 415.529 594.569 416.054C595.169 416.579 595.925 416.923 596.737 417.04L596.82 417.052C596.88 417.06 596.932 417.068 596.992 417.076C595.19 421.094 592.662 424.793 589.517 428.01C586.449 443.487 573.27 444.955 559.173 440.448H559.164C557.618 446.727 555.377 452.839 552.477 458.685H528.589C528.504 458.437 528.427 458.181 528.35 457.933C530.561 458.063 532.78 457.94 534.959 457.565C533.187 455.534 531.415 453.486 529.642 451.454C529.603 451.416 529.566 451.376 529.531 451.334C528.632 450.295 527.724 449.263 526.825 448.223L526.825 448.222C526.777 445.034 527.169 441.854 527.991 438.76Z" fill="#F2F2F2"/>
<path d="M178.926 579.316C178.925 579.51 178.966 579.702 179.045 579.881C179.124 580.06 179.24 580.222 179.386 580.359C179.533 580.496 179.707 580.605 179.899 580.679C180.091 580.753 180.296 580.79 180.503 580.79H834.423C834.841 580.79 835.243 580.634 835.538 580.358C835.834 580.082 836 579.707 836 579.316C836 578.925 835.834 578.55 835.538 578.274C835.243 577.998 834.841 577.842 834.423 577.842H180.503C180.296 577.842 180.091 577.879 179.899 577.953C179.707 578.027 179.533 578.136 179.386 578.273C179.24 578.41 179.124 578.572 179.045 578.751C178.966 578.93 178.925 579.122 178.926 579.316Z" fill="#CCCCCC"/>
<path d="M475.041 263.087C476.884 264.905 474.089 267.266 471.938 265.708C453.996 252.713 436.054 239.727 418.111 226.748C418.09 226.728 418.065 226.711 418.038 226.699C416.8 225.914 415.622 225.051 414.511 224.115C397.813 222.47 379.461 217.03 362.075 214.668C346.723 216.597 331.415 218.897 316.019 220.603C302.591 222.179 289.073 222.997 275.539 223.051C264.519 223.002 252.65 222.94 242.655 218.538C232.264 213.963 226.484 204.962 223.82 195.714C222.506 190.993 221.649 186.173 221.259 181.309V151.153C222.678 138.021 227.01 125.014 238.762 115.852C256.397 102.103 282.798 101.744 305.365 101.361C332.249 100.882 359.141 101.877 385.9 104.341C407.706 106.369 430.639 108.335 450.805 116.186C459.455 119.561 467.606 124.248 473.562 130.591C480.265 137.776 484.143 146.884 484.553 156.407C485.622 176.302 474.909 194.502 469.04 213.283C463.947 229.543 461.079 249.251 475.041 263.087Z" fill="#247066"/>
<path d="M341.933 134.723H281.987C281.715 134.723 281.445 134.673 281.193 134.576C280.942 134.478 280.713 134.336 280.521 134.156C280.328 133.976 280.175 133.762 280.071 133.527C279.967 133.292 279.913 133.04 279.913 132.786C279.913 132.531 279.967 132.279 280.071 132.044C280.175 131.809 280.328 131.596 280.521 131.416C280.713 131.236 280.942 131.093 281.193 130.996C281.445 130.898 281.715 130.848 281.987 130.848H341.933C342.483 130.848 343.01 131.052 343.399 131.416C343.788 131.779 344.007 132.272 344.007 132.786C344.007 133.3 343.788 133.792 343.399 134.156C343.01 134.519 342.483 134.723 341.933 134.723Z" fill="white"/>
<path d="M341.933 176.041H281.987C281.437 176.041 280.909 175.837 280.521 175.473C280.132 175.11 279.913 174.617 279.913 174.103C279.913 173.589 280.132 173.097 280.521 172.733C280.909 172.37 281.437 172.166 281.987 172.166H341.933C342.483 172.166 343.01 172.37 343.399 172.733C343.788 173.097 344.007 173.589 344.007 174.103C344.007 174.617 343.788 175.11 343.399 175.473C343.01 175.837 342.483 176.041 341.933 176.041Z" fill="white"/>
<path d="M390.618 155.396H281.987C281.437 155.396 280.909 155.191 280.521 154.828C280.132 154.465 279.913 153.972 279.913 153.458C279.913 152.944 280.132 152.451 280.521 152.088C280.909 151.725 281.437 151.521 281.987 151.521H390.618C391.168 151.521 391.696 151.725 392.085 152.088C392.474 152.451 392.692 152.944 392.692 153.458C392.692 153.972 392.474 154.465 392.085 154.828C391.696 155.191 391.168 155.396 390.618 155.396Z" fill="white"/>
<path d="M488.63 136.137C494.186 144.419 497.329 153.952 496.367 163.778C495.536 172.257 491.813 180.23 487.743 187.745C483.526 195.531 478.803 203.093 475.354 211.223C471.568 220.085 470.168 229.68 471.279 239.165C471.961 245.324 473.291 251.399 474.544 257.472L478.37 276.011L481.693 274.204L426.709 229.797C424.782 228.24 421.957 230.857 423.897 232.424L478.881 276.831C479.196 277.107 479.598 277.281 480.027 277.327C480.457 277.373 480.891 277.288 481.264 277.085C481.638 276.882 481.931 276.571 482.1 276.2C482.27 275.829 482.306 275.416 482.205 275.024C479.957 264.131 477.302 253.233 475.656 242.244C474.71 236.703 474.577 231.067 475.261 225.492C475.934 221.243 477.13 217.08 478.824 213.087C485.418 196.988 497.77 182.906 500.151 165.403C501.643 154.437 498.288 143.539 492.063 134.262C490.707 132.24 487.265 134.103 488.63 136.137Z" fill="#3F3D56"/>
<path d="M430.186 213.544L348.869 222.531L308.21 227.024C295.824 228.393 282.915 230.315 270.538 227.893C249.701 223.815 236.764 206.176 232.693 187.588C230.174 176.081 231.066 164.041 233.185 152.546C234.315 146.417 235.807 140.352 237.418 134.32C238.855 128.944 239.926 123.156 242.408 118.095C244.388 113.981 247.335 110.336 251.029 107.43C254.723 104.525 259.071 102.434 263.748 101.313C266.67 100.754 269.63 100.388 272.607 100.217C275.952 99.9033 279.298 99.6147 282.648 99.351C289.346 98.8238 296.053 98.3969 302.767 98.0702C306.124 97.9068 309.482 97.7685 312.841 97.6552C315.392 97.568 315.405 93.8523 312.841 93.94C298.863 94.418 284.912 95.3231 270.989 96.6554C265.317 97.2014 260.073 97.9903 254.952 100.472C250.528 102.634 246.642 105.645 243.549 109.307C240.38 113.085 238.055 117.419 236.713 122.052C234.883 128.208 233.222 134.426 231.707 140.656C228.652 153.214 226.457 166.157 227.477 179.068C228.985 198.163 238.771 218.535 257.762 227.626C268.977 232.994 281.774 233.235 294.063 232.21C307.768 231.067 321.434 229.278 335.097 227.768L419.693 218.419L430.186 217.259C432.696 216.981 432.726 213.263 430.186 213.544Z" fill="#3F3D56"/>
</g>
<defs>
<clipPath id="clip0_422_3367">
<rect width="836" height="581" fill="white"/>
</clipPath>
</defs>
</svg>
