<svg width="618" height="113" viewBox="0 0 618 113" fill="none" xmlns="http://www.w3.org/2000/svg">
<path d="M31.4 112.64C25.512 112.64 20.1787 111.189 15.4 108.288C10.7067 105.387 6.99467 101.205 4.264 95.744C1.53333 90.1973 0.168 83.6693 0.168 76.16C0.168 63.1893 2.94133 51.2 8.488 40.192C14.0347 29.0987 22.2267 20.224 33.064 13.568C43.9013 6.82666 56.9147 3.45599 72.104 3.45599C76.0293 3.45599 80.2107 3.75466 84.648 4.352C89.1707 4.94933 93.2667 5.84533 96.936 7.03999C99.3253 7.72266 100.52 9.42933 100.52 12.16C100.52 14.3787 99.6667 16.4693 97.96 18.432C96.3387 20.3947 94.4187 21.376 92.2 21.376C91.5173 21.376 91.0053 21.3333 90.664 21.248C86.2267 20.224 82.4293 19.4987 79.272 19.072C76.1147 18.56 72.7867 18.304 69.288 18.304C58.4507 18.304 49.2347 20.9493 41.64 26.24C34.0453 31.4453 28.3707 38.3573 24.616 46.976C20.8613 55.5947 18.984 64.896 18.984 74.88C18.984 82.1333 20.392 87.7653 23.208 91.776C26.1093 95.7013 29.864 97.664 34.472 97.664C39.6773 97.664 44.2427 95.5307 48.168 91.264C52.0933 86.9973 55.6773 80.0853 58.92 70.528C62.1627 60.9707 65.3627 48 68.52 31.616C69.032 29.2267 70.056 27.6053 71.592 26.752C73.128 25.8987 75.176 25.472 77.736 25.472C83.7947 25.472 86.824 27.4347 86.824 31.36C86.824 32.0427 86.696 32.896 86.44 33.92C84.2213 42.1973 82.1733 51.3707 80.296 61.44C78.504 71.424 77.608 79.0187 77.608 84.224C77.608 88.832 78.2907 92.2027 79.656 94.336C81.0213 96.384 83.112 97.408 85.928 97.408C88.6587 97.408 91.2613 96.512 93.736 94.72C96.2107 92.8427 99.3253 89.6853 103.08 85.248C104.104 84.0533 105.256 83.456 106.536 83.456C107.645 83.456 108.499 83.968 109.096 84.992C109.779 86.016 110.12 87.424 110.12 89.216C110.12 92.544 109.309 95.1893 107.688 97.152C103.507 102.187 99.4107 106.027 95.4 108.672C91.3893 111.317 86.4827 112.64 80.68 112.64C74.7067 112.64 69.8853 110.933 66.216 107.52C62.5467 104.021 60.2427 99.1147 59.304 92.8C52.9893 106.027 43.688 112.64 31.4 112.64ZM116.537 43.904C112.953 43.904 110.265 43.0933 108.473 41.472C106.681 39.7653 105.785 37.4187 105.785 34.432C105.785 31.4453 106.937 28.9707 109.241 27.008C111.63 24.96 114.574 23.936 118.073 23.936C121.23 23.936 123.79 24.704 125.753 26.24C127.716 27.776 128.697 29.952 128.697 32.768C128.697 36.1813 127.588 38.912 125.369 40.96C123.15 42.9227 120.206 43.904 116.537 43.904ZM115.513 112.64C109.966 112.64 105.913 110.677 103.353 106.752C100.878 102.827 99.641 97.6213 99.641 91.136C99.641 87.296 100.11 82.3893 101.049 76.416C102.073 70.3573 103.353 64.7253 104.889 59.52C105.657 56.7893 106.681 54.912 107.961 53.888C109.241 52.864 111.289 52.352 114.105 52.352C118.457 52.352 120.633 53.8027 120.633 56.704C120.633 58.8373 119.822 63.7867 118.201 71.552C116.153 80.9387 115.129 87.296 115.129 90.624C115.129 93.184 115.47 95.1467 116.153 96.512C116.836 97.8773 117.988 98.56 119.609 98.56C121.145 98.56 123.065 97.4933 125.369 95.36C127.673 93.2267 130.745 89.856 134.585 85.248C135.609 84.0533 136.761 83.456 138.041 83.456C139.15 83.456 140.004 83.968 140.601 84.992C141.284 86.016 141.625 87.424 141.625 89.216C141.625 92.6293 140.814 95.2747 139.193 97.152C130.745 107.477 122.852 112.64 115.513 112.64ZM140.357 112.64C137.114 112.64 134.81 110.933 133.445 107.52C132.165 104.107 131.525 98.6453 131.525 91.136C131.525 80.0427 133.104 69.504 136.261 59.52C137.029 57.0453 138.266 55.2533 139.973 54.144C141.765 52.9493 144.24 52.352 147.397 52.352C149.104 52.352 150.298 52.5653 150.981 52.992C151.664 53.4187 152.005 54.2293 152.005 55.424C152.005 56.7893 151.365 59.8613 150.085 64.64C149.232 68.0533 148.549 71.04 148.037 73.6C147.525 76.16 147.098 79.3173 146.757 83.072C149.573 75.7333 152.73 69.76 156.229 65.152C159.728 60.544 163.141 57.2587 166.469 55.296C169.882 53.3333 172.997 52.352 175.813 52.352C181.36 52.352 184.133 55.1253 184.133 60.672C184.133 61.7813 183.749 64.4693 182.981 68.736C182.298 72.1493 181.957 74.2827 181.957 75.136C181.957 78.1227 183.024 79.616 185.157 79.616C187.546 79.616 190.618 77.7387 194.373 73.984C195.482 72.8747 196.634 72.32 197.829 72.32C198.938 72.32 199.792 72.832 200.389 73.856C201.072 74.7947 201.413 76.0747 201.413 77.696C201.413 80.8533 200.56 83.328 198.853 85.12C196.464 87.5947 193.648 89.728 190.405 91.52C187.248 93.2267 183.877 94.08 180.293 94.08C175.77 94.08 172.314 92.928 169.925 90.624C167.621 88.32 166.469 85.2053 166.469 81.28C166.469 80 166.597 78.72 166.853 77.44C167.024 75.7333 167.109 74.5813 167.109 73.984C167.109 72.6187 166.64 71.936 165.701 71.936C164.421 71.936 162.714 73.3867 160.581 76.288C158.533 79.104 156.485 82.8587 154.437 87.552C152.389 92.2453 150.725 97.1947 149.445 102.4C148.506 106.411 147.397 109.141 146.117 110.592C144.922 111.957 143.002 112.64 140.357 112.64ZM293.967 56.704C295.93 56.704 297.338 57.1307 298.191 57.984C299.13 58.8373 299.599 59.9467 299.599 61.312C299.599 63.5307 298.916 65.4933 297.551 67.2C296.271 68.9067 294.223 69.8027 291.407 69.888C284.58 70.0587 278.522 69.5467 273.231 68.352C267.172 81.0667 259.834 91.648 251.215 100.096C242.682 108.459 234.106 112.64 225.487 112.64C216.612 112.64 209.999 107.477 205.647 97.152C201.295 86.8267 199.119 72.8747 199.119 55.296C199.119 40.2773 200.186 26.7947 202.319 14.848C203.087 10.4107 204.154 7.42399 205.519 5.88799C206.97 4.26666 209.402 3.45599 212.815 3.45599C218.447 3.45599 221.263 5.888 221.263 10.752C221.263 11.264 221.178 12.2027 221.007 13.568C218.447 28.928 217.167 42.8373 217.167 55.296C217.167 68.352 218.234 78.2933 220.367 85.12C222.586 91.8613 225.871 95.232 230.223 95.232C234.66 95.232 239.482 92.16 244.687 86.016C249.892 79.872 254.671 72.1493 259.023 62.848C253.818 59.6053 249.892 55.424 247.247 50.304C244.602 45.0987 243.279 39.1253 243.279 32.384C243.279 25.6427 244.303 19.968 246.351 15.36C248.484 10.6667 251.343 7.16799 254.927 4.864C258.596 2.56 262.65 1.408 267.087 1.408C272.548 1.408 276.858 3.37066 280.015 7.296C283.258 11.2213 284.879 16.5973 284.879 23.424C284.879 33.2373 282.746 43.9467 278.479 55.552C283.002 56.32 288.164 56.704 293.967 56.704ZM256.207 31.488C256.207 39.8507 258.895 46.0373 264.271 50.048C267.599 40.4907 269.263 32.5973 269.263 26.368C269.263 22.784 268.794 20.1813 267.855 18.56C266.916 16.8533 265.636 16 264.015 16C261.711 16 259.834 17.3653 258.383 20.096C256.932 22.7413 256.207 26.5387 256.207 31.488ZM344.232 83.456C345.341 83.456 346.195 83.968 346.792 84.992C347.475 86.016 347.816 87.424 347.816 89.216C347.816 92.6293 347.005 95.2747 345.384 97.152C342.227 100.992 337.747 104.533 331.944 107.776C326.227 111.019 320.083 112.64 313.512 112.64C304.552 112.64 297.597 110.208 292.648 105.344C287.699 100.48 285.224 93.824 285.224 85.376C285.224 79.488 286.461 74.0267 288.936 68.992C291.411 63.872 294.824 59.8187 299.176 56.832C303.613 53.8453 308.605 52.352 314.152 52.352C319.101 52.352 323.069 53.8453 326.056 56.832C329.043 59.7333 330.536 63.7013 330.536 68.736C330.536 74.624 328.403 79.7013 324.136 83.968C319.955 88.1493 312.829 91.4773 302.76 93.952C304.893 97.8773 308.947 99.84 314.92 99.84C318.76 99.84 323.112 98.5173 327.976 95.872C332.925 93.1413 337.192 89.6 340.776 85.248C341.8 84.0533 342.952 83.456 344.232 83.456ZM311.976 64.896C308.819 64.896 306.131 66.7307 303.912 70.4C301.779 74.0693 300.712 78.5067 300.712 83.712V83.968C305.747 82.7733 309.715 80.9813 312.616 78.592C315.517 76.2027 316.968 73.4293 316.968 70.272C316.968 68.6507 316.499 67.3707 315.56 66.432C314.707 65.408 313.512 64.896 311.976 64.896ZM346.482 112.64C343.239 112.64 340.935 110.933 339.57 107.52C338.29 104.107 337.65 98.6453 337.65 91.136C337.65 80.0427 339.229 69.504 342.386 59.52C343.154 57.0453 344.391 55.2533 346.098 54.144C347.89 52.9493 350.365 52.352 353.522 52.352C355.229 52.352 356.423 52.5653 357.106 52.992C357.789 53.4187 358.13 54.2293 358.13 55.424C358.13 56.7893 357.49 59.8613 356.21 64.64C355.357 68.0533 354.674 71.04 354.162 73.6C353.65 76.16 353.223 79.3173 352.882 83.072C355.698 75.7333 358.855 69.76 362.354 65.152C365.853 60.544 369.266 57.2587 372.594 55.296C376.007 53.3333 379.122 52.352 381.938 52.352C387.485 52.352 390.258 55.1253 390.258 60.672C390.258 64 389.319 70.016 387.442 78.72C385.821 86.144 385.01 91.0507 385.01 93.44C385.01 96.8533 386.247 98.56 388.722 98.56C390.429 98.56 392.434 97.536 394.738 95.488C397.127 93.3547 400.285 89.9413 404.21 85.248C405.234 84.0533 406.386 83.456 407.666 83.456C408.775 83.456 409.629 83.968 410.226 84.992C410.909 86.016 411.25 87.424 411.25 89.216C411.25 92.6293 410.439 95.2747 408.818 97.152C405.149 101.675 401.181 105.387 396.914 108.288C392.733 111.189 387.954 112.64 382.578 112.64C378.226 112.64 374.941 111.403 372.722 108.928C370.503 106.368 369.394 102.699 369.394 97.92C369.394 95.5307 369.991 91.264 371.186 85.12C372.295 79.744 372.85 76.032 372.85 73.984C372.85 72.6187 372.381 71.936 371.442 71.936C370.333 71.936 368.754 73.3867 366.706 76.288C364.743 79.104 362.695 82.8587 360.562 87.552C358.514 92.2453 356.85 97.1947 355.57 102.4C354.631 106.411 353.522 109.141 352.242 110.592C351.047 111.957 349.127 112.64 346.482 112.64ZM457.982 83.456C459.091 83.456 459.945 83.968 460.542 84.992C461.225 86.016 461.566 87.424 461.566 89.216C461.566 92.6293 460.755 95.2747 459.134 97.152C455.465 101.675 451.454 105.387 447.102 108.288C442.75 111.189 437.758 112.64 432.126 112.64C414.718 112.64 406.014 100.395 406.014 75.904C406.014 72.1493 406.142 68.352 406.398 64.512H401.406C398.846 64.512 397.097 64.0427 396.158 63.104C395.305 62.1653 394.878 60.672 394.878 58.624C394.878 53.8453 396.798 51.456 400.638 51.456H407.934C409.385 42.0693 411.603 33.4933 414.59 25.728C417.577 17.9627 421.161 11.776 425.342 7.16799C429.609 2.56 434.174 0.255997 439.038 0.255997C442.622 0.255997 445.438 1.83466 447.486 4.992C449.534 8.14933 450.558 12.1173 450.558 16.896C450.558 30.1227 445.011 41.6427 433.918 51.456H448.254C449.619 51.456 450.601 51.7547 451.198 52.352C451.795 52.9493 452.094 54.0587 452.094 55.68C452.094 61.568 447.273 64.512 437.63 64.512H422.014C421.843 68.7787 421.758 72.1067 421.758 74.496C421.758 83.3707 422.782 89.6 424.83 93.184C426.963 96.768 430.291 98.56 434.814 98.56C438.483 98.56 441.726 97.4507 444.542 95.232C447.358 93.0133 450.686 89.6853 454.526 85.248C455.55 84.0533 456.702 83.456 457.982 83.456ZM435.582 12.544C434.302 12.544 432.851 14.1653 431.23 17.408C429.694 20.5653 428.201 25.0027 426.75 30.72C425.385 36.352 424.233 42.624 423.294 49.536C428.329 45.184 432.083 40.32 434.558 34.944C437.118 29.4827 438.398 24.5333 438.398 20.096C438.398 15.0613 437.459 12.544 435.582 12.544ZM464.2 112.64C460.36 112.64 457.203 110.891 454.728 107.392C452.339 103.808 451.144 99.3707 451.144 94.08C451.144 87.68 451.571 81.8347 452.424 76.544C453.277 71.168 454.685 65.4933 456.648 59.52C457.501 56.96 458.696 55.1253 460.232 54.016C461.768 52.9067 464.2 52.352 467.528 52.352C469.405 52.352 470.685 52.6507 471.368 53.248C472.136 53.8453 472.52 54.7413 472.52 55.936C472.52 56.6187 472.051 58.9227 471.112 62.848C470.259 66.0053 469.576 68.864 469.064 71.424C467.357 80.384 466.504 86.3573 466.504 89.344C466.504 91.136 466.717 92.416 467.144 93.184C467.571 93.8667 468.253 94.208 469.192 94.208C470.472 94.208 472.051 92.928 473.928 90.368C475.891 87.808 477.939 83.9253 480.072 78.72C482.291 73.5147 484.424 67.1147 486.472 59.52C487.155 56.96 488.179 55.1253 489.544 54.016C490.995 52.9067 493.128 52.352 495.944 52.352C497.907 52.352 499.272 52.608 500.04 53.12C500.808 53.5467 501.192 54.4 501.192 55.68C501.192 57.8133 500.125 63.6587 497.992 73.216C495.603 84.1387 494.408 90.88 494.408 93.44C494.408 95.0613 494.749 96.3413 495.432 97.28C496.115 98.1333 497.011 98.56 498.12 98.56C499.827 98.56 501.832 97.536 504.136 95.488C506.525 93.3547 509.683 89.9413 513.608 85.248C514.632 84.0533 515.784 83.456 517.064 83.456C518.173 83.456 519.027 83.968 519.624 84.992C520.307 86.016 520.648 87.424 520.648 89.216C520.648 92.6293 519.837 95.2747 518.216 97.152C514.547 101.675 510.579 105.387 506.312 108.288C502.131 111.189 497.352 112.64 491.976 112.64C487.88 112.64 484.851 111.061 482.888 107.904C481.011 104.747 480.072 100.309 480.072 94.592C478.621 100.395 476.445 104.875 473.544 108.032C470.643 111.104 467.528 112.64 464.2 112.64ZM519.357 112.64C516.114 112.64 513.81 110.933 512.445 107.52C511.165 104.107 510.525 98.6453 510.525 91.136C510.525 80.0427 512.104 69.504 515.261 59.52C516.029 57.0453 517.266 55.2533 518.973 54.144C520.765 52.9493 523.24 52.352 526.397 52.352C528.104 52.352 529.298 52.5653 529.981 52.992C530.664 53.4187 531.005 54.2293 531.005 55.424C531.005 56.7893 530.365 59.8613 529.085 64.64C528.232 68.0533 527.549 71.04 527.037 73.6C526.525 76.16 526.098 79.3173 525.757 83.072C528.573 75.7333 531.73 69.76 535.229 65.152C538.728 60.544 542.141 57.2587 545.469 55.296C548.882 53.3333 551.997 52.352 554.813 52.352C560.36 52.352 563.133 55.1253 563.133 60.672C563.133 61.7813 562.749 64.4693 561.981 68.736C561.298 72.1493 560.957 74.2827 560.957 75.136C560.957 78.1227 562.024 79.616 564.157 79.616C566.546 79.616 569.618 77.7387 573.373 73.984C574.482 72.8747 575.634 72.32 576.829 72.32C577.938 72.32 578.792 72.832 579.389 73.856C580.072 74.7947 580.413 76.0747 580.413 77.696C580.413 80.8533 579.56 83.328 577.853 85.12C575.464 87.5947 572.648 89.728 569.405 91.52C566.248 93.2267 562.877 94.08 559.293 94.08C554.77 94.08 551.314 92.928 548.925 90.624C546.621 88.32 545.469 85.2053 545.469 81.28C545.469 80 545.597 78.72 545.853 77.44C546.024 75.7333 546.109 74.5813 546.109 73.984C546.109 72.6187 545.64 71.936 544.701 71.936C543.421 71.936 541.714 73.3867 539.581 76.288C537.533 79.104 535.485 82.8587 533.437 87.552C531.389 92.2453 529.725 97.1947 528.445 102.4C527.506 106.411 526.397 109.141 525.117 110.592C523.922 111.957 522.002 112.64 519.357 112.64ZM614.343 87.296C615.452 87.296 616.306 87.808 616.903 88.832C617.586 89.856 617.927 91.264 617.927 93.056C617.927 96.128 617.202 98.7733 615.751 100.992C613.362 104.661 610.204 107.52 606.279 109.568C602.439 111.616 597.831 112.64 592.455 112.64C584.263 112.64 577.906 110.208 573.383 105.344C568.86 100.395 566.599 93.7387 566.599 85.376C566.599 79.488 567.836 74.0267 570.311 68.992C572.786 63.872 576.199 59.8187 580.551 56.832C584.988 53.8453 589.98 52.352 595.527 52.352C600.476 52.352 604.444 53.8453 607.431 56.832C610.418 59.7333 611.911 63.7013 611.911 68.736C611.911 74.624 609.778 79.7013 605.511 83.968C601.33 88.1493 594.162 91.4773 584.007 93.952C586.055 97.8773 589.511 99.84 594.375 99.84C597.874 99.84 600.732 99.0293 602.951 97.408C605.255 95.7867 607.9 93.056 610.887 89.216C611.911 87.936 613.063 87.296 614.343 87.296ZM593.351 64.896C590.194 64.896 587.506 66.7307 585.287 70.4C583.154 74.0693 582.087 78.5067 582.087 83.712V83.968C587.122 82.7733 591.09 80.9813 593.991 78.592C596.892 76.2027 598.343 73.4293 598.343 70.272C598.343 68.6507 597.874 67.3707 596.935 66.432C596.082 65.408 594.887 64.896 593.351 64.896Z" fill="#FAF7F7"/>
</svg>
